<?xml version="1.0" encoding="UTF-8" standalone="no"?>
<svg
   xmlns:dc="http://purl.org/dc/elements/1.1/"
   xmlns:cc="http://creativecommons.org/ns#"
   xmlns:rdf="http://www.w3.org/1999/02/22-rdf-syntax-ns#"
   xmlns:svg="http://www.w3.org/2000/svg"
   xmlns="http://www.w3.org/2000/svg"
   xmlns:sodipodi="http://sodipodi.sourceforge.net/DTD/sodipodi-0.dtd"
   xmlns:inkscape="http://www.inkscape.org/namespaces/inkscape"
   id="Layer_1"
   data-name="Layer 1"
   viewBox="0 0 666.63 146.21"
   version="1.1"
   sodipodi:docname="Logo_1_white.svg"
   inkscape:version="0.92.4 (5da689c313, 2019-01-14)">
  <metadata
     id="metadata39">
    <rdf:RDF>
      <cc:Work
         rdf:about="">
        <dc:format>image/svg+xml</dc:format>
        <dc:type
           rdf:resource="http://purl.org/dc/dcmitype/StillImage" />
        <dc:title>Logo_1</dc:title>
      </cc:Work>
    </rdf:RDF>
  </metadata>
  <sodipodi:namedview
     pagecolor="#ffffff"
     bordercolor="#666666"
     borderopacity="1"
     objecttolerance="10"
     gridtolerance="10"
     guidetolerance="10"
     inkscape:pageopacity="0"
     inkscape:pageshadow="2"
     inkscape:window-width="1850"
     inkscape:window-height="1009"
     id="namedview37"
     showgrid="false"
     inkscape:zoom="2.5669388"
     inkscape:cx="67.570339"
     inkscape:cy="100.71622"
     inkscape:window-x="70"
     inkscape:window-y="34"
     inkscape:window-maximized="1"
     inkscape:current-layer="Layer_1" />
  <defs
     id="defs4">
    <style
       id="style2">.cls-1{fill:#49bce2;}.cls-2{fill:#ffc10e;}</style>
    <clipPath
       clipPathUnits="userSpaceOnUse"
       id="clipPath838">
      <path
         style="fill:#49bce2;fill-opacity:1;stroke-width:0.19478454"
         d="m 66.87166,86.172107 v -6.817459 h -6.817459 -6.817459 v -6.233105 -6.233105 h 6.817459 6.817459 V 60.070979 53.25352 h 6.233105 6.233106 v 6.817459 6.817459 h 6.817459 6.817459 v 6.230581 6.230581 l -6.768763,0.05122 -6.768763,0.05122 -0.05122,6.768763 -0.05122,6.768762 H 73.102241 66.87166 Z"
         id="path840"
         inkscape:connector-curvature="0" />
    </clipPath>
  </defs>
  <title
     id="title6">Logo_1</title>
  <path
     class="cls-1"
     d="M73.11,41.43a31.68,31.68,0,1,0,31.68,31.68A31.68,31.68,0,0,0,73.11,41.43Zm19.9,38H79.43V93.08H66.78V79.43H53.21V66.78H66.78V53.13H79.43V66.78H93Z"
     id="path8"
     style="fill:#ffffff" />
  <path
     class="cls-1"
     d="M73.11,125.24A52.13,52.13,0,0,1,21,74.49h0V21.88a73.09,73.09,0,1,0,107.67,98.74L112.71,107A52,52,0,0,1,73.11,125.24Z"
     id="path10" />
  <path
     class="cls-1"
     d="M73.11,0A72.82,72.82,0,0,0,44.3,5.91L44,6.06a3.76,3.76,0,0,0-2.13,3.37v22A52.14,52.14,0,0,1,113.36,40l16.19-13.33A73,73,0,0,0,73.11,0Z"
     id="path12" />
  <path
     class="cls-2"
     d="M184.43,45.71a16.32,16.32,0,0,1,7.32,5,11.82,11.82,0,0,1,2.59,7.61,12.14,12.14,0,0,1-2.63,7.77,13.19,13.19,0,0,1-7.16,4.53,13.92,13.92,0,0,1,8.54,4.94,14.53,14.53,0,0,1,3.12,9.39,13.67,13.67,0,0,1-2.67,8.38,16.6,16.6,0,0,1-7.61,5.5,32.11,32.11,0,0,1-11.57,1.9h-28V44H173.3A32.23,32.23,0,0,1,184.43,45.71Zm-7.08,19.34a5.15,5.15,0,0,0,1.78-4.17,4.83,4.83,0,0,0-1.78-4,7.28,7.28,0,0,0-4.86-1.34H161.16v11h11.33A7.31,7.31,0,0,0,177.35,65.06Zm1.3,22.54a5.25,5.25,0,0,0,2.27-4.53,4.93,4.93,0,0,0-2.27-4.25,10.22,10.22,0,0,0-6.15-1.5H161.16v11.9h11.33A10.4,10.4,0,0,0,178.64,87.59Z"
     id="path14"
     style="fill:#ffffff" />
  <path
     class="cls-2"
     d="M236.67,59.23a20.42,20.42,0,0,1,8.42,7.85,22.53,22.53,0,0,1,3,11.69,22.68,22.68,0,0,1-3,11.77,20.41,20.41,0,0,1-8.42,7.85,29.58,29.58,0,0,1-25.09,0,20.13,20.13,0,0,1-8.38-7.85,22.91,22.91,0,0,1-3-11.77,22.75,22.75,0,0,1,3-11.69,20.13,20.13,0,0,1,8.38-7.85,29.58,29.58,0,0,1,25.09,0ZM217.33,71.08a11.57,11.57,0,0,0-2.59,7.85,11.69,11.69,0,0,0,2.59,7.93,8.55,8.55,0,0,0,6.8,3,8.64,8.64,0,0,0,6.88-3,11.7,11.7,0,0,0,2.59-7.93A11.47,11.47,0,0,0,231,71.08a8.68,8.68,0,0,0-6.84-3A8.56,8.56,0,0,0,217.33,71.08Z"
     id="path16"
     style="fill:#ffffff" />
  <path
     class="cls-2"
     d="M287.81,59.23a20.42,20.42,0,0,1,8.42,7.85,22.53,22.53,0,0,1,3,11.69,22.68,22.68,0,0,1-3,11.77,20.41,20.41,0,0,1-8.42,7.85,29.58,29.58,0,0,1-25.09,0,20.13,20.13,0,0,1-8.38-7.85,22.91,22.91,0,0,1-3-11.77,22.75,22.75,0,0,1,3-11.69,20.13,20.13,0,0,1,8.38-7.85,29.58,29.58,0,0,1,25.09,0ZM268.47,71.08a11.57,11.57,0,0,0-2.59,7.85,11.69,11.69,0,0,0,2.59,7.93,8.55,8.55,0,0,0,6.8,3,8.64,8.64,0,0,0,6.88-3,11.7,11.7,0,0,0,2.59-7.93,11.47,11.47,0,0,0-2.63-7.85,8.68,8.68,0,0,0-6.84-3A8.56,8.56,0,0,0,268.47,71.08Z"
     id="path18"
     style="fill:#ffffff" />
  <path
     class="cls-2"
     d="M334.59,100.7l-9.22-16.51-4.45,4.61v11.9H306.5v-60h14.41V71.73l14-14.81h16.35l-16,16.91,16.35,26.87Z"
     id="path20"
     style="fill:#ffffff" />
  <path
     class="cls-2"
     d="M369.34,38.92a7.5,7.5,0,0,1,2.15,5.54,7.53,7.53,0,0,1-2.15,5.5,7.92,7.92,0,0,1-10.92,0,7.53,7.53,0,0,1-2.15-5.5,7.5,7.5,0,0,1,2.15-5.54,8,8,0,0,1,10.92,0Zm-12.5,18h14.32V100.7H356.84Z"
     id="path22"
     style="fill:#ffffff" />
  <path
     class="cls-2"
     d="M422.11,60.89q4.33,4.53,4.33,12.22v27.6H412.11V77.24a8.21,8.21,0,0,0-2-5.87,7.1,7.1,0,0,0-5.42-2.14,8.31,8.31,0,0,0-5.87,2.35,9.54,9.54,0,0,0-2.71,6V100.7h-14.4V56.92h14.4V64a15.56,15.56,0,0,1,6-5.74,17.85,17.85,0,0,1,8.46-1.94Q417.78,56.36,422.11,60.89Z"
     id="path24"
     style="fill:#ffffff" />
  <path
     class="cls-2"
     d="M477.66,56.92v39.9a19,19,0,0,1-3,10.64,19.42,19.42,0,0,1-8.37,7A29.52,29.52,0,0,1,453.87,117a36.57,36.57,0,0,1-10.6-1.54,33.6,33.6,0,0,1-9-4.13l5-10a25.78,25.78,0,0,0,6.47,3.16,22.62,22.62,0,0,0,7,1.13,12,12,0,0,0,7.69-2.27,7.46,7.46,0,0,0,2.83-6.15V92.53q-4.37,5.75-12.46,5.75A17.56,17.56,0,0,1,434.57,88.2a24.55,24.55,0,0,1-2.39-11,24.29,24.29,0,0,1,2.31-10.84A17.28,17.28,0,0,1,441,59a17.85,17.85,0,0,1,9.55-2.59,17.42,17.42,0,0,1,7.32,1.5,14.29,14.29,0,0,1,5.46,4.33V56.92Zm-16.75,28a10.92,10.92,0,0,0,2.43-7.36,11.05,11.05,0,0,0-2.43-7.45,8.64,8.64,0,0,0-12.83,0,11,11,0,0,0-2.47,7.4,10.8,10.8,0,0,0,2.47,7.36,8.13,8.13,0,0,0,6.43,2.83A8,8,0,0,0,460.91,84.92Z"
     id="path26"
     style="fill:#ffffff" />
  <path
     class="cls-2"
     d="M522.17,57.69a15.69,15.69,0,0,0-7.53-2.06,14.72,14.72,0,0,0-7.81,2.15,15.19,15.19,0,0,0-5.54,5.91,18.35,18.35,0,0,0,0,16.75,15.18,15.18,0,0,0,5.54,5.91,14.71,14.71,0,0,0,7.81,2.15,17.18,17.18,0,0,0,7.28-1.78,23.06,23.06,0,0,0,6.8-4.86l8.66,9.31a34.62,34.62,0,0,1-11,7.73,30.45,30.45,0,0,1-27.8-1,28.38,28.38,0,0,1-10.68-10.6,29.51,29.51,0,0,1-3.88-15.05,28.28,28.28,0,0,1,14.85-25.33,32.25,32.25,0,0,1,28-1.17,30.92,30.92,0,0,1,10.44,7.16l-8.58,10.36A21.17,21.17,0,0,0,522.17,57.69Z"
     id="path28"
     style="fill:#ffffff" />
  <path
     class="cls-2"
     d="M576.56,60.52q5,4.17,5.1,11.69V100.7H567.49V95.77q-4.37,5.58-13.19,5.58-7,0-11-3.76a13,13,0,0,1-4-9.91A11.76,11.76,0,0,1,543.66,78q4.33-3.48,12.42-3.56h11.41v-.49a5.84,5.84,0,0,0-2.14-4.86,9.79,9.79,0,0,0-6.19-1.7,25,25,0,0,0-6.19.89A36.81,36.81,0,0,0,546,70.84l-4-9.71a57,57,0,0,1,10.24-3.6,43.48,43.48,0,0,1,10.16-1.17Q571.54,56.36,576.56,60.52ZM564.42,90a6.84,6.84,0,0,0,3.08-4.09v-3.8h-8.58q-6.07,0-6.07,4.53a4.47,4.47,0,0,0,1.58,3.6,6.49,6.49,0,0,0,4.33,1.34A10.16,10.16,0,0,0,564.42,90Z"
     id="path30"
     style="fill:#ffffff" />
  <path
     class="cls-2"
     d="M611.15,58.38a16.49,16.49,0,0,1,8.21-2V69.55a21.73,21.73,0,0,0-2.18-.08,13.32,13.32,0,0,0-8.25,2.39,9.15,9.15,0,0,0-3.64,6.51V100.7h-14.4V56.92h14.4v7.28A15.77,15.77,0,0,1,611.15,58.38Z"
     id="path32"
     style="fill:#ffffff" />
  <path
     class="cls-2"
     d="M660.88,62.75q5.74,6.31,5.75,17.32,0,1.7-.08,2.59H636.12a10.51,10.51,0,0,0,3.64,5.71,10.07,10.07,0,0,0,6.31,2,13.66,13.66,0,0,0,5.46-1.13,15.43,15.43,0,0,0,4.82-3.32l7.53,7.53a22.19,22.19,0,0,1-8.21,5.79,28.33,28.33,0,0,1-10.88,2,26.18,26.18,0,0,1-12.3-2.75,19.12,19.12,0,0,1-8.05-7.77A23.57,23.57,0,0,1,621.63,79a24.16,24.16,0,0,1,2.83-11.86,19.56,19.56,0,0,1,8-7.93,24.85,24.85,0,0,1,12-2.79Q655.13,56.44,660.88,62.75ZM652.63,75a8.43,8.43,0,0,0-2.23-6.11,8.46,8.46,0,0,0-11.57,0,11.27,11.27,0,0,0-3,6.15Z"
     id="path34"
     style="fill:#ffffff" />
  <path
     style="fill:#ffffff;stroke-width:0.38956907"
     d="M 70.058993,104.358 C 57.414716,103.32913 46.401148,94.157428 42.76729,81.630453 41.649969,77.77872 41.366899,71.547507 42.12757,67.548293 c 1.204503,-6.332652 3.907926,-11.558657 8.413036,-16.263296 6.468296,-6.754773 14.492709,-9.906787 24.170442,-9.494226 6.745739,0.287571 12.125918,2.237433 17.553383,6.361626 7.915669,6.014914 12.163679,14.684496 12.204449,24.907536 0.0335,8.414252 -2.63817,15.28581 -8.298929,21.344443 -4.460438,4.773944 -9.459326,7.760274 -15.411681,9.206944 -3.7821,0.9192 -6.364385,1.09941 -10.699277,0.74668 z m 9.349658,-18.052718 v -6.817459 h 6.817459 6.817459 v -6.42789 -6.42789 H 86.22611 79.408651 v -6.817459 -6.817459 h -6.42789 -6.42789 v 6.817459 6.817459 h -6.817459 -6.817459 v 6.42789 6.42789 h 6.817459 6.817459 v 6.817459 6.817459 h 6.42789 6.42789 z"
     id="path4561"
     inkscape:connector-curvature="0"
     clip-path="url(#clipPath838)" />
  <path
     style="fill:#ffffff;stroke-width:0.19478455"
     d="m 110.12671,36.487505 c -3.53622,-3.561824 -6.51682,-5.946416 -10.10119,-8.081317 -6.628333,-3.947928 -14.096109,-6.411253 -21.808369,-7.193718 -3.022698,-0.306675 -9.842547,-0.149137 -12.793494,0.295529 -7.5841,1.142818 -14.879944,3.982411 -21.371111,8.317781 -1.094526,0.731021 -2.040749,1.329128 -2.102716,1.329128 -0.06197,0 -0.0868,-5.10579 -0.05519,-11.3462 0.06311,-12.4579308 0.0048,-11.8530798 1.257493,-13.0380401 0.634248,-0.5999421 1.495734,-0.9941355 5.033558,-2.3032236 12.663992,-4.68601114 27.272508,-5.6160267 40.904288,-2.6040717 3.596517,0.7946539 9.473956,2.6918525 12.855781,4.1497614 8.46044,3.6473093 16.40698,9.059226 22.88718,15.587115 2.1551,2.170955 4.48005,4.786571 4.48005,5.040145 0,0.08267 -2.03794,1.82241 -4.52874,3.866082 -2.49081,2.043672 -6.06267,4.975898 -7.93747,6.516055 l -3.40873,2.800289 z"
     id="path4563"
     inkscape:connector-curvature="0" />
  <path
     style="fill:#ffffff;fill-opacity:1;stroke-width:0.38956907"
     d="M 64.664304,145.57135 C 48.248236,143.71663 31.553744,135.36732 20.263033,123.36523 -5.4825754,95.997483 -6.5375511,54.053808 17.805243,25.648521 l 2.837754,-3.311337 0.223715,29.022897 c 0.245431,31.839964 0.153617,30.559295 2.751008,38.372555 7.940279,23.885294 32.125892,38.709844 57.163704,35.038434 10.569745,-1.54989 20.485476,-6.42533 28.374226,-13.95125 3.23847,-3.08952 3.69385,-3.3991 4.29778,-2.92177 0.90118,0.71226 13.77435,11.61566 14.5046,12.2852 0.49517,0.454 0.12436,0.97939 -2.72698,3.86371 -11.90489,12.04257 -26.289283,19.19057 -43.036235,21.38591 -4.887534,0.6407 -12.549652,0.70122 -17.530511,0.13848 z"
     id="path4571"
     inkscape:connector-curvature="0" />
</svg>
