<?xml version="1.0" ?><!DOCTYPE svg  PUBLIC '-//W3C//DTD SVG 1.1//EN'  'http://www.w3.org/Graphics/SVG/1.1/DTD/svg11.dtd'><svg enable-background="new 0 0 128 128" height="128px" id="Layer_1" version="1.1" viewBox="0 0 128 128" width="128px" xml:space="preserve" xmlns="http://www.w3.org/2000/svg" xmlns:xlink="http://www.w3.org/1999/xlink"><path d="M128,112c0,8.8-7.2,16-16,16H16c-8.8,0-16-7.2-16-16V16C0,7.2,7.2,0,16,0h96c8.8,0,16,7.2,16,16V112z" fill="#BD2026"/><path d="M42.12,109.688c-0.488-3.737-0.998-12.039,0.211-17.224c1.087-4.686,7.039-29.844,7.039-29.844  s-1.798-3.597-1.798-8.91c0-8.359,4.84-14.584,10.868-14.584c5.122,0,7.592,3.844,7.592,8.459c0,5.144-3.278,12.852-4.97,19.992  C59.65,73.549,64.062,78.42,69.95,78.42c10.676,0,18.881-11.251,18.881-27.495c0-14.374-10.328-24.428-25.083-24.428  c-17.085,0-27.11,12.817-27.11,26.06c0,5.162,1.988,10.696,4.466,13.699c0.492,0.6,0.563,1.115,0.415,1.724  c-0.453,1.894-1.468,5.974-1.667,6.81c-0.263,1.101-0.868,1.329-2.01,0.804C30.348,72.1,25.657,61.133,25.657,52.327  C25.657,33.394,39.42,16,65.331,16c20.827,0,37.012,14.84,37.012,34.682c0,20.685-13.045,37.343-31.148,37.343  c-6.094,0-11.808-3.163-13.766-6.896c0,0-3.013,11.466-3.744,14.273c-1.354,5.22-5.845,13.264-7.461,15.742  c-1.617,2.479-3.165,4.855-3.165,4.855S42.607,113.429,42.12,109.688z" fill="#FFFFFF"/></svg>