<?xml version="1.0" ?><!DOCTYPE svg  PUBLIC '-//W3C//DTD SVG 1.1//EN'  'http://www.w3.org/Graphics/SVG/1.1/DTD/svg11.dtd'><svg enable-background="new 0 0 128 128" height="128px" id="Layer_1" version="1.1" viewBox="0 0 128 128" width="128px" xml:space="preserve" xmlns="http://www.w3.org/2000/svg" xmlns:xlink="http://www.w3.org/1999/xlink"><path d="M128,112c0,8.8-7.2,16-16,16H16c-8.8,0-16-7.2-16-16V16C0,7.2,7.2,0,16,0h96c8.8,0,16,7.2,16,16V112z" fill="#35465D"/><path d="M83.143,87.898c-1.487,0.713-4.332,1.328-6.455,1.386c-6.402,0.171-7.645-4.497-7.7-7.893v-24.9h16.064  V44.382H69.046V24c0,0-11.528,0-11.717,0c-0.193,0-0.53,0.172-0.578,0.597c-0.685,6.241-3.603,17.188-15.742,21.562v10.332h8.099  v26.144c0,8.943,6.602,21.657,24.028,21.36c5.88-0.103,12.409-2.563,13.854-4.687L83.143,87.898" fill="#FFFFFF"/></svg>